<svg width="48" height="48" viewBox="0 0 48 48" fill="none" xmlns="http://www.w3.org/2000/svg">
<path d="M43.414 23.414H33.9798V22.0809H36.5252C36.8487 22.0809 37.1111 21.8186 37.1111 21.495C37.1111 21.1714 36.8487 20.9091 36.5252 20.9091H33.9798V19.5759H35.747C36.4053 19.5759 37.0243 19.3195 37.4898 18.854L41.3433 15.0004C41.5944 15.1255 41.8728 15.1921 42.1615 15.1921C42.6526 15.1921 43.1143 15.0008 43.4615 14.6536C43.8088 14.3064 44 13.8447 44 13.3536C44 12.8625 43.8088 12.4009 43.4615 12.0536C43.1143 11.7064 42.6526 11.5151 42.1615 11.5151C41.6704 11.5151 41.2088 11.7064 40.8615 12.0536C40.5143 12.4008 40.323 12.8625 40.323 13.3535C40.323 13.6423 40.3896 13.9207 40.5147 14.1717L36.6611 18.0253C36.417 18.2695 36.0923 18.404 35.7469 18.404H33.9797V17.1112C33.9797 15.4068 32.5931 14.0203 30.8888 14.0203H29.596V8.83318C30.3232 8.58795 30.8485 7.8999 30.8485 7.091C30.8485 6.07725 30.0237 5.25257 29.01 5.25257C27.9964 5.25257 27.1716 6.07733 27.1716 7.091C27.1716 7.8999 27.6969 8.58787 28.4241 8.83318V14.0202H27.091V11.4748C27.091 11.1512 26.8286 10.8889 26.505 10.8889C26.1815 10.8889 25.9191 11.1512 25.9191 11.4748V14.0202H24.5859V4.58601C24.5859 4.26242 24.3236 4.00008 24 4.00008C23.6764 4.00008 23.414 4.26242 23.414 4.58601V14.0202H22.0809V11.4748C22.0809 11.1512 21.8186 10.8889 21.495 10.8889C21.1714 10.8889 20.9091 11.1512 20.9091 11.4748V14.0202H19.5759V12.2531C19.5759 11.5947 19.3195 10.9757 18.854 10.5103L14.9991 6.65538C15.3396 5.9678 15.2255 5.11046 14.6537 4.53859C13.9368 3.8218 12.7705 3.82187 12.0537 4.53859C11.3369 5.25538 11.3369 6.42171 12.0537 7.13858C12.4121 7.49693 12.8829 7.67615 13.3537 7.67615C13.634 7.67615 13.9139 7.61108 14.1705 7.48397L18.0254 11.3389C18.2696 11.5831 18.4041 11.9078 18.4041 12.2531V14.0202H17.1113C16.8499 14.0202 16.59 14.053 16.3388 14.1176C16.0254 14.1982 15.8367 14.5177 15.9174 14.8311C15.998 15.1446 16.3175 15.3332 16.6309 15.2525C16.7867 15.2124 16.9483 15.1921 17.1112 15.1921H30.8888C31.947 15.1921 32.8078 16.053 32.8078 17.1111V30.8888C32.8078 31.0515 32.7875 31.213 32.7475 31.3687C32.667 31.6821 32.8557 32.0015 33.1691 32.0821C33.218 32.0946 33.267 32.1006 33.3154 32.1006C33.5764 32.1006 33.8145 31.9249 33.8824 31.6604C33.947 31.4095 33.9797 31.1498 33.9797 30.8887V29.5959H39.1667C39.4119 30.3231 40.1 30.8484 40.9089 30.8484C41.9226 30.8484 42.7473 30.0237 42.7473 29.01C42.7473 27.9962 41.9226 27.1715 40.9089 27.1715C40.1 27.1715 39.412 27.6968 39.1667 28.424H33.9797V27.0908H36.5251C36.8487 27.0908 37.111 26.8285 37.111 26.5049C37.111 26.1813 36.8487 25.919 36.5251 25.919H33.9797V24.5859H43.414C43.7375 24.5859 43.9999 24.3236 43.9999 24C43.9999 23.6764 43.7375 23.414 43.414 23.414ZM41.6901 12.8823C41.8161 12.7564 41.9834 12.6871 42.1615 12.6871C42.3395 12.6871 42.5068 12.7564 42.6328 12.8823C42.7587 13.0082 42.828 13.1756 42.828 13.3536C42.828 13.5317 42.7587 13.699 42.6328 13.825C42.5068 13.9509 42.3395 14.0202 42.1615 14.0202C41.9834 14.0202 41.8161 13.9509 41.6901 13.825C41.5642 13.699 41.4949 13.5317 41.4949 13.3536C41.4949 13.1756 41.5642 13.0082 41.6901 12.8823ZM13.825 6.30999C13.5651 6.56975 13.1422 6.56983 12.8822 6.30991C12.6223 6.04999 12.6223 5.6271 12.8822 5.36726C13.0122 5.23726 13.1828 5.17234 13.3536 5.17234C13.5243 5.17234 13.695 5.23734 13.825 5.36726C14.0849 5.62718 14.0849 6.05007 13.825 6.30999ZM29.01 7.75756C28.6425 7.75756 28.3435 7.4585 28.3435 7.091C28.3435 6.7235 28.6425 6.42444 29.01 6.42444C29.3776 6.42444 29.6766 6.7235 29.6766 7.091C29.6766 7.4585 29.3775 7.75756 29.01 7.75756ZM40.909 28.3435C41.2765 28.3435 41.5755 28.6425 41.5755 29.01C41.5755 29.3776 41.2765 29.6766 40.909 29.6766C40.5415 29.6766 40.2424 29.3775 40.2424 29.01C40.2423 28.6425 40.5414 28.3435 40.909 28.3435Z" fill="black"/>
<path d="M35.9463 40.8615C35.3745 40.2896 34.517 40.1755 33.8295 40.516L29.9746 36.661C29.7303 36.4169 29.5959 36.0922 29.5959 35.7469V33.9798H30.8887C31.15 33.9798 31.4099 33.947 31.661 33.8824C31.9744 33.8017 32.1631 33.4823 32.0824 33.1688C32.0018 32.8555 31.6825 32.6668 31.3689 32.7474C31.2132 32.7875 31.0516 32.8078 30.8887 32.8078H17.1111C16.0529 32.8078 15.1921 31.9469 15.1921 30.8888V17.1112C15.1921 16.9483 15.2124 16.7867 15.2524 16.631C15.3331 16.3177 15.1445 15.9982 14.8311 15.9175C14.5177 15.8368 14.1982 16.0255 14.1176 16.3388C14.0529 16.5899 14.0202 16.8498 14.0202 17.1112V18.404H8.8331C8.58787 17.6768 7.89983 17.1515 7.09092 17.1515C6.07718 17.1515 5.25249 17.9762 5.25249 18.9899C5.25249 20.0037 6.07726 20.8284 7.09092 20.8284C7.89983 20.8284 8.58779 20.303 8.8331 19.5759H14.0201V20.9091H11.4747C11.1511 20.9091 10.8888 21.1714 10.8888 21.495C10.8888 21.8186 11.1511 22.0809 11.4747 22.0809H14.0201V23.414H4.58593C4.26234 23.414 4 23.6764 4 24C4 24.3236 4.26234 24.5859 4.58593 24.5859H14.0201V25.919H11.4747C11.1511 25.919 10.8888 26.1814 10.8888 26.505C10.8888 26.8286 11.1511 27.0909 11.4747 27.0909H14.0201V28.4241H12.2529C11.5946 28.4241 10.9756 28.6804 10.5101 29.146L6.65655 32.9995C6.40546 32.8745 6.1271 32.8079 5.83835 32.8079C5.34726 32.8079 4.88562 32.9992 4.53836 33.3463C4.19125 33.6936 4 34.1553 4 34.6463C4 35.1374 4.19125 35.5991 4.53851 35.9463C4.8857 36.2936 5.34742 36.4848 5.83851 36.4848C6.3296 36.4848 6.79124 36.2935 7.1385 35.9463C7.48576 35.5991 7.67701 35.1374 7.67701 34.6463C7.67701 34.3576 7.61045 34.0792 7.48537 33.8281L11.3389 29.9746C11.5831 29.7304 11.9078 29.5959 12.2532 29.5959H14.0203V30.8887C14.0203 32.5931 15.407 33.9796 17.1113 33.9796H18.4041V39.1666C17.6769 39.4119 17.1516 40.0999 17.1516 40.9088C17.1516 41.9226 17.9763 42.7472 18.99 42.7472C20.0037 42.7472 20.8284 41.9225 20.8284 40.9088C20.8284 40.0999 20.3031 39.4119 19.5759 39.1666V33.9796H20.9091V36.525C20.9091 36.8486 21.1714 37.1109 21.495 37.1109C21.8186 37.1109 22.0809 36.8486 22.0809 36.525V33.9796H23.414V43.414C23.414 43.7375 23.6763 43.9999 23.9999 43.9999C24.3235 43.9999 24.5858 43.7375 24.5858 43.414V33.9798H25.919V36.5252C25.919 36.8488 26.1813 37.1111 26.5049 37.1111C26.8285 37.1111 27.0908 36.8488 27.0908 36.5252V33.9798H28.4239V35.7469C28.4239 36.4052 28.6803 37.0242 29.1459 37.4897L33.0008 41.3446C32.6603 42.0322 32.7744 42.8895 33.3463 43.4614C33.7046 43.8198 34.1755 43.999 34.6463 43.999C35.117 43.999 35.5879 43.8198 35.9463 43.4614C36.663 42.7446 36.663 41.5783 35.9463 40.8615ZM7.09092 19.6565C6.72335 19.6565 6.42436 19.3574 6.42436 18.9899C6.42436 18.6223 6.72342 18.3234 7.09092 18.3234C7.45842 18.3234 7.75748 18.6224 7.75748 18.9899C7.75756 19.3575 7.4585 19.6565 7.09092 19.6565ZM6.30975 35.1177C6.18382 35.2436 6.01647 35.3129 5.83843 35.3129C5.66038 35.3129 5.49304 35.2436 5.3671 35.1177C5.24117 34.9917 5.17187 34.8244 5.17187 34.6463C5.17187 34.4683 5.24117 34.3009 5.3671 34.175C5.49304 34.0491 5.66038 33.9798 5.83843 33.9798C6.01647 33.9798 6.18382 34.0491 6.30975 34.175C6.43569 34.3009 6.50499 34.4683 6.50499 34.6463C6.50499 34.8244 6.43569 34.9918 6.30975 35.1177ZM19.6564 40.909C19.6564 41.2765 19.3574 41.5755 18.9899 41.5755C18.6223 41.5755 18.3233 41.2765 18.3233 40.909C18.3233 40.5415 18.6224 40.2424 18.9899 40.2424C19.3573 40.2424 19.6564 40.5415 19.6564 40.909ZM35.1177 42.6328C34.8577 42.8927 34.4349 42.8926 34.1749 42.6328C33.915 42.3729 33.915 41.95 34.1749 41.6901C34.3049 41.5602 34.4756 41.4952 34.6463 41.4952C34.817 41.4952 34.9877 41.5602 35.1177 41.6901C35.3775 41.95 35.3775 42.3729 35.1177 42.6328Z" fill="black"/>
<path d="M30.2222 22.4345C30.2222 21.1813 29.3056 20.1199 28.0508 19.7749C28.0879 19.6217 28.1086 19.4642 28.1086 19.3031C28.1086 18.1167 27.0555 17.1515 25.7613 17.1515C25.0602 17.1515 24.4305 17.435 24 17.8831C23.5695 17.435 22.9397 17.1515 22.2387 17.1515C20.9444 17.1515 19.8914 18.1167 19.8914 19.3031C19.8914 19.4642 19.912 19.6217 19.9492 19.7749C18.6944 20.1198 17.7778 21.1813 17.7778 22.4345C17.7778 23.0469 17.9946 23.6247 18.3949 24.1019C18.0035 24.6087 17.7778 25.2239 17.7778 25.8789C17.7777 26.8751 18.31 27.8054 19.1868 28.3824C19.1868 28.3829 19.1868 28.3833 19.1868 28.3838C19.1868 29.7429 20.3978 30.8486 21.8864 30.8486C22.7419 30.8486 23.5051 30.483 24 29.9144C24.4949 30.483 25.2581 30.8486 26.1136 30.8486C27.5461 30.8486 28.7211 29.8243 28.8075 28.5359C29.6775 28.0311 30.2222 27.1468 30.2222 26.1919C30.2222 25.4896 29.9227 24.8196 29.4073 24.3132C29.9226 23.8068 30.2222 23.1367 30.2222 22.4345ZM28.1484 24.8313C28.713 25.1293 29.05 25.638 29.05 26.1919C29.05 26.605 28.8581 26.999 28.5339 27.2936C28.2258 26.7232 27.6814 26.2691 26.9935 26.053C26.6849 25.9561 26.3559 26.1277 26.2589 26.4364C26.1619 26.7451 26.3336 27.074 26.6422 27.171C27.2396 27.3587 27.641 27.8461 27.641 28.3839C27.641 29.0968 26.9557 29.6768 26.1133 29.6768C25.2709 29.6768 24.5856 29.0968 24.5856 28.3839V24.6263C24.5856 23.9134 25.2709 23.3335 26.1133 23.3335C26.4369 23.3335 26.6992 23.0712 26.6992 22.7476C26.6992 22.424 26.4369 22.1616 26.1133 22.1616C25.5465 22.1616 25.0203 22.3223 24.5856 22.5958V21.8473C24.5856 21.5238 24.3233 21.2614 23.9997 21.2614C23.6761 21.2614 23.4137 21.5238 23.4137 21.8473V25.1002C23.2166 24.9765 23.0003 24.874 22.7664 24.8005C22.4575 24.7035 22.1288 24.8752 22.0318 25.1838C21.9348 25.4926 22.1064 25.8215 22.4151 25.9185C23.0124 26.1062 23.4137 26.5936 23.4137 27.1313V28.3838C23.4137 29.0967 22.7284 29.6767 21.8861 29.6767C21.0437 29.6767 20.3584 29.0967 20.3584 28.3838C20.3584 28.0783 20.4879 27.7812 20.7231 27.5475C20.9526 27.3193 20.9537 26.9483 20.7256 26.7188C20.4974 26.4893 20.1265 26.4882 19.897 26.7163C19.7566 26.8559 19.6357 27.0084 19.5352 27.1705C19.1652 26.8205 18.9492 26.3601 18.9492 25.8787C18.9492 25.0106 19.6306 24.248 20.6061 24.0241C20.9215 23.9518 21.1185 23.6374 21.0462 23.322C20.9738 23.0066 20.6594 22.8096 20.3441 22.8819C19.9513 22.972 19.5898 23.1224 19.2692 23.3198C19.0613 23.0587 18.9493 22.753 18.9493 22.4343C18.9495 21.553 19.785 20.8355 20.8149 20.8287C20.8202 20.8288 20.8254 20.8295 20.8306 20.8295C20.9643 20.8295 21.0988 20.784 21.2088 20.6908C21.4334 20.5006 21.4785 20.178 21.3277 19.9352C21.3233 19.9281 21.3192 19.9207 21.3145 19.9138C21.3121 19.9102 21.3092 19.9069 21.3067 19.9034C21.2977 19.8906 21.2884 19.8781 21.2783 19.8661C21.278 19.8657 21.2777 19.8653 21.2774 19.865C21.1797 19.7495 21.0631 19.5582 21.0631 19.3031C21.0631 18.7628 21.5904 18.3233 22.2384 18.3233C22.8865 18.3233 23.4138 18.7628 23.4138 19.3031C23.4138 19.6267 23.6762 19.889 23.9998 19.889C24.3233 19.889 24.5857 19.6267 24.5857 19.3031C24.5857 18.7628 25.113 18.3233 25.7611 18.3233C26.4091 18.3233 26.9365 18.7628 26.9365 19.3031C26.9365 19.4474 26.8987 19.5706 26.8486 19.6718C26.5153 19.7033 26.193 19.7838 25.8869 19.9129C25.5887 20.0386 25.449 20.3823 25.5747 20.6805C25.7004 20.9786 26.044 21.1185 26.3422 20.9927C26.5955 20.8859 26.868 20.831 27.1522 20.8288C27.1579 20.829 27.1634 20.8295 27.169 20.8295C27.1743 20.8295 27.1794 20.8288 27.1847 20.8287C28.2146 20.8354 29.05 21.553 29.05 22.4343C29.05 22.9883 28.713 23.4969 28.1484 23.7949C27.9562 23.8963 27.8359 24.0958 27.8359 24.3131C27.8359 24.5305 27.9562 24.7299 28.1484 24.8313Z" fill="black"/>
</svg>
