<svg width="48" height="48" viewBox="0 0 48 48" fill="none" xmlns="http://www.w3.org/2000/svg">
<path d="M43.1304 9.21739H21.3913C20.9113 9.21739 20.5217 9.60696 20.5217 10.087C20.5217 10.567 20.9113 10.9565 21.3913 10.9565H43.1304C43.6104 10.9565 44 10.567 44 10.087C44 9.60696 43.6104 9.21739 43.1304 9.21739Z" fill="#111111"/>
<path d="M17.0435 4H10.087C9.60696 4 9.21739 4.38957 9.21739 4.86957V9.21739H4.86957C4.38957 9.21739 4 9.60696 4 10.087C4 10.567 4.38957 10.9565 4.86957 10.9565H9.21739V15.3043C9.21739 15.7843 9.60696 16.1739 10.087 16.1739H17.0435C17.5235 16.1739 17.913 15.7843 17.913 15.3043V4.86957C17.913 4.38957 17.5235 4 17.0435 4Z" fill="#111111"/>
<path d="M4.86957 23.1304H26.6087C27.0887 23.1304 27.4783 23.52 27.4783 24C27.4783 24.48 27.0887 24.8696 26.6087 24.8696H4.86957C4.38957 24.8696 4 24.48 4 24C4 23.52 4.38957 23.1304 4.86957 23.1304Z" fill="#111111"/>
<path d="M30.9565 17.913H37.913C38.393 17.913 38.7826 18.3026 38.7826 18.7826V23.1304H43.1304C43.6104 23.1304 44 23.52 44 24C44 24.48 43.6104 24.8696 43.1304 24.8696H38.7826V29.2174C38.7826 29.6974 38.393 30.087 37.913 30.087H30.9565C30.4765 30.087 30.0869 29.6974 30.0869 29.2174V18.7826C30.0869 18.3026 30.4765 17.913 30.9565 17.913Z" fill="#111111"/>
<path d="M43.1304 37.0435H21.3913C20.9113 37.0435 20.5217 37.4331 20.5217 37.9131C20.5217 38.3931 20.9113 38.7826 21.3913 38.7826H43.1304C43.6104 38.7826 44 38.3931 44 37.9131C44 37.4331 43.6104 37.0435 43.1304 37.0435Z" fill="#111111"/>
<path d="M17.0435 31.8261H10.087C9.60696 31.8261 9.21739 32.2156 9.21739 32.6956V37.0435H4.86957C4.38957 37.0435 4 37.433 4 37.913C4 38.393 4.38957 38.7826 4.86957 38.7826H9.21739V43.1304C9.21739 43.6104 9.60696 44 10.087 44H17.0435C17.5235 44 17.913 43.6104 17.913 43.1304V32.6956C17.913 32.2156 17.5235 31.8261 17.0435 31.8261Z" fill="#111111"/>
</svg>
